<svg width="55" height="55" viewBox="0 0 55 55" fill="none" xmlns="http://www.w3.org/2000/svg">
<circle cx="27.5" cy="27.5" r="27.5" fill="url(#paint0_linear)"/>
<path d="M28.4225 29.4422H32.2628V31.0477C31.46 31.6335 30.3969 31.9156 29.3989 31.9156C26.6435 31.9156 24.6474 30.2884 24.6474 27.316C24.6474 24.4521 26.3831 22.7164 29.1385 22.7164C30.7006 22.7164 31.959 23.3022 32.8269 24.2785L35.1483 22.1957C34.0852 20.5468 31.6119 19.4619 29.0083 19.4619C24.322 19.4619 21.1543 22.9768 21.1543 27.316C21.1543 32.0241 24.604 35.17 29.3771 35.17C31.8071 35.17 34.0202 34.172 35.4955 32.5448V26.4048H28.4225V29.4422Z" fill="white"/>
<defs>
<linearGradient id="paint0_linear" x1="3.85" y1="25.025" x2="55" y2="27.5" gradientUnits="userSpaceOnUse">
<stop offset="0.131475" stop-color="#3C7AEC"/>
<stop offset="0.985677" stop-color="#FF2466"/>
</linearGradient>
</defs>
</svg>
