<svg width="50" height="50" viewBox="0 0 50 50" fill="none" xmlns="http://www.w3.org/2000/svg">
<path d="M25.0003 4.1665C19.475 4.1665 14.1759 6.36144 10.2689 10.2684C6.36193 14.1755 4.16699 19.4745 4.16699 24.9998C4.16699 30.5252 6.36193 35.8242 10.2689 39.7312C14.1759 43.6382 19.475 45.8332 25.0003 45.8332C30.5257 45.8332 35.8247 43.6382 39.7317 39.7312C43.6387 35.8242 45.8337 30.5252 45.8337 24.9998C45.8337 19.4745 43.6387 14.1755 39.7317 10.2684C35.8247 6.36144 30.5257 4.1665 25.0003 4.1665Z" fill="#29B6F6"/>
<path d="M35.3649 15.6252L31.4628 35.5481C31.4628 35.5481 31.2951 36.4585 30.1659 36.4585C29.5659 36.4585 29.2566 36.1731 29.2566 36.1731L20.8045 29.1595L16.6691 27.0752L11.3618 25.6637C11.3618 25.6637 10.417 25.3908 10.417 24.6095C10.417 23.9585 11.3889 23.6481 11.3889 23.6481L33.593 14.8272C33.592 14.8262 34.2712 14.5825 34.7659 14.5835C35.0701 14.5835 35.417 14.7137 35.417 15.1043C35.417 15.3647 35.3649 15.6252 35.3649 15.6252Z" fill="white"/>
<path d="M23.9592 31.7765L20.3904 35.291C20.3904 35.291 20.2352 35.4108 20.0279 35.416C19.9561 35.4181 19.879 35.4067 19.7998 35.3713L20.804 29.1577L23.9592 31.7765Z" fill="#B0BEC5"/>
<path d="M31.143 18.9541C30.967 18.7249 30.642 18.6832 30.4128 18.8572L16.667 27.0832C16.667 27.0832 18.8607 33.2207 19.1951 34.2832C19.5305 35.3468 19.7993 35.3718 19.7993 35.3718L20.8035 29.1582L31.0451 19.6832C31.2743 19.5093 31.317 19.1832 31.143 18.9541Z" fill="#CFD8DC"/>
</svg>
