<svg width="50" height="50" viewBox="0 0 50 50" fill="none" xmlns="http://www.w3.org/2000/svg">
<path d="M5.07031 45.1075L7.87656 34.8627C6.14531 31.8647 5.2349 28.4627 5.23594 24.9783C5.24115 14.0772 14.112 5.2085 25.0141 5.2085C30.3047 5.21058 35.2693 7.26995 39.0036 11.0064C42.737 14.7439 44.7932 19.7106 44.7911 24.9939C44.787 35.895 35.9141 44.7648 25.0141 44.7648C25.013 44.7648 25.0141 44.7648 25.0141 44.7648H25.0057C21.6964 44.7637 18.4432 43.9335 15.5547 42.3575L5.07031 45.1075Z" fill="white"/>
<path d="M5.07116 45.6281C4.93366 45.6281 4.80033 45.574 4.70137 45.474C4.57116 45.3417 4.52012 45.149 4.56908 44.9708L7.31803 34.9333C5.61387 31.9063 4.71491 28.4688 4.71699 24.9792C4.72116 13.7896 13.8264 4.6875 25.0149 4.6875C30.442 4.68958 35.541 6.80313 39.3732 10.6385C43.2055 14.475 45.3149 19.5729 45.3128 24.9938C45.3087 36.1823 36.2024 45.2854 25.0149 45.2854C21.693 45.2844 18.4066 44.4646 15.4899 42.9135L5.20345 45.6104C5.1597 45.6229 5.11595 45.6281 5.07116 45.6281Z" fill="white"/>
<path d="M25.0142 5.20817C30.3048 5.21025 35.2694 7.26963 39.0037 11.0061C42.7371 14.7436 44.7933 19.7103 44.7912 24.9936C44.7871 35.8946 35.9142 44.7644 25.0142 44.7644H25.0058C21.6965 44.7634 18.4433 43.9332 15.5548 42.3571L5.07042 45.1071L7.87666 34.8623C6.14541 31.8644 5.235 28.4623 5.23604 24.978C5.24125 14.0769 14.1121 5.20817 25.0142 5.20817ZM25.0142 4.1665C13.5392 4.1665 4.19958 13.5019 4.19437 24.978C4.19333 28.4853 5.07875 31.9415 6.75791 35.0009L4.06521 44.8332C3.96729 45.1925 4.06729 45.5759 4.32979 45.8405C4.52771 46.0405 4.79542 46.1498 5.07042 46.1498C5.15896 46.1498 5.2475 46.1384 5.335 46.1155L15.4256 43.4696C18.3715 44.9988 21.6735 45.8061 25.0058 45.8071C36.4892 45.8071 45.8287 36.4707 45.8339 24.9946C45.836 19.4332 43.6725 14.204 39.7423 10.2707C35.81 6.33629 30.5798 4.16859 25.0142 4.1665Z" fill="#CFD8DC"/>
<path d="M36.6409 13.3666C33.5367 10.2604 29.4107 8.54889 25.019 8.54785C15.9523 8.54785 8.57839 15.9187 8.57422 24.9791C8.57318 28.0843 9.44193 31.1072 11.0878 33.7249L11.4794 34.3468L9.81797 40.4103L16.0398 38.7791L16.6409 39.1353C19.1638 40.6333 22.0575 41.4249 25.0075 41.426H25.0138C34.0742 41.426 41.4482 34.0541 41.4513 24.9926C41.4523 20.602 39.745 16.4728 36.6409 13.3666Z" fill="#40C351"/>
<path fill-rule="evenodd" clip-rule="evenodd" d="M20.0712 16.7138C19.7014 15.8909 19.3118 15.8742 18.9587 15.8596C18.6701 15.8471 18.341 15.8482 18.0118 15.8482C17.6826 15.8482 17.1472 15.9721 16.6941 16.4669C16.2409 16.9617 14.9639 18.1565 14.9639 20.5877C14.9639 23.019 16.7347 25.369 16.9816 25.6982C17.2285 26.0273 20.4003 31.1763 25.4232 33.1575C29.5972 34.8034 30.4472 34.4763 31.3535 34.394C32.2597 34.3117 34.2774 33.1992 34.6889 32.045C35.1003 30.8909 35.1003 29.9023 34.9774 29.6961C34.8534 29.4898 34.5243 29.3669 34.0305 29.119C33.5368 28.8711 31.1066 27.6763 30.6535 27.5117C30.2003 27.3471 29.8712 27.2648 29.5409 27.7596C29.2118 28.2534 28.2649 29.3669 27.9764 29.6961C27.6878 30.0263 27.3993 30.068 26.9055 29.82C26.4118 29.5721 24.8201 29.0513 22.9316 27.368C21.4628 26.0586 20.4712 24.4409 20.1826 23.9461C19.8941 23.4523 20.1514 23.1846 20.3993 22.9377C20.6212 22.7159 20.893 22.3607 21.141 22.0721C21.3878 21.7836 21.4701 21.5773 21.6347 21.2482C21.7993 20.918 21.717 20.6294 21.593 20.3825C21.4712 20.1346 20.5107 17.6909 20.0712 16.7138Z" fill="white"/>
</svg>
